<?xml version="1.0" encoding="utf-8"?>
<!-- Generator: Adobe Illustrator 24.2.3, SVG Export Plug-In . SVG Version: 6.00 Build 0)  -->
<svg version="1.1" id="Layer_1" xmlns="http://www.w3.org/2000/svg" xmlns:xlink="http://www.w3.org/1999/xlink" x="0px" y="0px"
	 viewBox="0 0 602.25 89.28" style="enable-background:new 0 0 602.25 89.28;" xml:space="preserve">
<style type="text/css">
	.st0{fill:#5994CF;}
	.st1{fill:#0B529E;}
</style>
<g>
	<g>
		<g>
			<path class="st0" d="M200.71,72.12c-17.07,0-32.47-13.2-32.47-34.14c0-20.85,15.4-33.97,32.47-33.97c7.48,0,13.2,2.02,17.34,4.49
				v8.62c-5.19-3.26-10.03-5.28-16.98-5.28c-12.23,0-24.46,9.68-24.46,26.22c0,16.37,12.23,26.22,24.46,26.22
				c6.95,0,11.79-2.11,16.98-5.37v8.71C213.82,70.1,208.19,72.12,200.71,72.12z"/>
			<path class="st0" d="M221.12,47.04c0-14.34,10.21-24.9,23.76-24.9c13.46,0,23.58,10.56,23.58,24.9
				c0,14.26-10.12,24.82-23.58,24.82C231.33,71.86,221.12,61.39,221.12,47.04z M260.37,47.04c0-11-7.57-17.34-15.49-17.34
				c-8.01,0-15.58,6.34-15.58,17.34s7.57,17.25,15.58,17.25C252.8,64.29,260.37,57.96,260.37,47.04z"/>
			<path class="st0" d="M337.99,39.04V70.8h-8.1V40.36c0-6.86-2.64-10.47-8.98-10.47s-9.94,5.02-9.94,10.47V70.8h-8.1V40.36
				c0-6.86-2.73-10.47-9.06-10.47c-6.42,0-9.86,5.28-9.86,10.91V70.8h-8.1V23.2h6.25l0.88,7.04h0.26c2.38-4.58,6.78-8.1,12.76-8.1
				c6.78,0,10.91,3.08,13.2,8.36c2.82-5.02,7.39-8.36,13.73-8.36C333.32,22.14,337.99,29.09,337.99,39.04z"/>
			<path class="st0" d="M347.93,23.2h6.6l0.97,8.8c3.61-6.42,10.12-9.86,16.9-9.86c11.26,0,21.65,9.68,21.65,24.82
				c0,15.31-10.29,24.9-21.56,24.9c-6.6,0-13.29-3.52-16.46-9.33v26.75h-8.1V23.2z M385.95,46.96c0-10.21-6.6-17.25-15.13-17.25
				c-8.36,0-14.96,7.04-14.96,17.34c0,10.21,6.6,17.25,14.96,17.25C379.35,64.29,385.95,57.34,385.95,46.96z"/>
			<path class="st0" d="M398.44,47.04c0-15.22,10.47-24.9,21.65-24.9c6.86,0,13.38,3.43,16.98,9.86l0.97-8.8h6.6V70.8h-6.6
				l-0.97-8.71c-3.61,6.42-10.12,9.77-16.98,9.77C408.91,71.86,398.44,62.09,398.44,47.04z M436.81,46.96
				c0-10.21-6.69-17.25-15.05-17.25c-8.54,0-15.13,7.04-15.13,17.34c0,10.21,6.6,17.25,15.13,17.25
				C430.12,64.29,436.81,57.25,436.81,46.96z"/>
			<path class="st0" d="M494.01,39.3v31.5h-8.1V42.2c0-8.36-3.78-12.32-10.91-12.32c-6.78,0-11.88,4.93-11.88,11.88V70.8h-8.1V23.2
				h6.25l0.88,7.22h0.26c2.73-4.4,7.83-8.27,14.61-8.27C487.32,22.14,494.01,28.83,494.01,39.3z"/>
			<path class="st0" d="M503.07,7.36c0-2.82,2.11-4.93,5.02-4.93c2.9,0,5.02,2.11,5.02,4.93s-2.11,4.93-5.02,4.93
				C505.18,12.29,503.07,10.17,503.07,7.36z M504.04,23.2h8.1V70.8h-8.1V23.2z"/>
			<path class="st0" d="M562.91,49.68h-35.29c1.14,9.42,7.83,15.14,16.81,15.14c5.46,0,11.09-2.02,16.02-6.25v8.01
				c-4.84,3.52-10.47,5.28-16.63,5.28c-14.78,0-24.11-9.94-24.11-24.64c0-15.4,10.65-25.08,22.97-25.08
				c11.26,0,20.5,8.27,20.5,23.94C563.18,47.48,563.09,48.63,562.91,49.68z M555.34,43.61c-0.18-9.86-6.25-14.43-12.76-14.43
				c-7.3,0-13.82,5.54-14.96,14.43H555.34z"/>
			<path class="st0" d="M599.7,26.28v8.01c-3.43-2.9-8.62-4.93-14.26-4.93c-5.98,0-9.33,2.55-9.33,6.42c0,4.22,4.14,5.81,10.56,7.66
				c7.3,2.11,15.58,4.49,15.58,14.08c0,8.71-6.78,14.34-17.78,14.34c-6.16,0-12.06-1.76-16.46-5.28v-8.71
				c3.7,3.78,9.33,6.78,16.19,6.78c6.42,0,10.12-2.82,10.12-7.04c0-4.58-4.49-6.07-11.35-8.18c-7.83-2.38-14.78-4.93-14.78-13.29
				c0-8.01,6.6-13.99,17.16-13.99C590.81,22.14,596.35,23.72,599.7,26.28z"/>
		</g>
	</g>
	<g>
		<path class="st1" d="M0,36.4C0,15.8,15.3,0,36.4,0c12.7,0,23.9,6.3,30,16.2l-13.8,8c-3.1-5.4-9.1-8.6-16.2-8.6
			C24,15.6,16,23.9,16,36.4s8,20.8,20.4,20.8c7.1,0,13.2-3.2,16.2-8.6l13.8,8c-6,9.9-17.2,16.2-30,16.2C15.3,72.8,0,57,0,36.4z"/>
		<path class="st1" d="M71.4,55.5l13.8-8c2.5,5.8,6.8,9.7,14.7,9.7c7.6,0,9.5-3,9.5-5.7c0-4.3-4-6-14.5-8.9
			c-10.4-2.9-20.6-7.9-20.6-21.3C74.3,7.8,85.7,0,97.8,0c11.5,0,20.5,5.5,25.6,15.8l-13.5,7.9c-2.4-5-5.7-8.1-12.1-8.1
			c-5,0-7.5,2.5-7.5,5.3c0,3.2,1.7,5.4,12.6,8.7c10.6,3.2,22.5,6.9,22.5,21.7c0,13.5-10.8,21.5-26,21.5
			C84.7,72.8,75.3,65.8,71.4,55.5z"/>
		<path class="st1" d="M149.9,1.4v70h-16v-70H149.9z"/>
	</g>
</g>
</svg>
