<?xml version="1.0" encoding="utf-8"?>
<!-- Generator: Adobe Illustrator 24.2.3, SVG Export Plug-In . SVG Version: 6.00 Build 0)  -->
<svg version="1.1" id="Layer_1" xmlns="http://www.w3.org/2000/svg" xmlns:xlink="http://www.w3.org/1999/xlink" x="0px" y="0px"
	 viewBox="0 0 403 195.73" style="enable-background:new 0 0 403 195.73;" xml:space="preserve">
<style type="text/css">
	.st0{fill:#105193;}
</style>
<g>
	<g>
		<path class="st0" d="M0,97.87C0,42.48,41.14,0,97.87,0c34.15,0,64.26,16.94,80.66,43.56l-37.1,21.51
			c-8.34-14.52-24.47-23.12-43.56-23.12c-33.34,0-54.85,22.32-54.85,55.92s21.51,55.92,54.85,55.92c19.09,0,35.49-8.6,43.56-23.12
			l37.1,21.51c-16.13,26.62-46.24,43.56-80.66,43.56C41.14,195.73,0,153.25,0,97.87z"/>
		<path class="st0" d="M191.96,149.22l37.1-21.51c6.72,15.59,18.28,26.08,39.52,26.08c20.43,0,25.54-8.07,25.54-15.32
			c0-11.56-10.76-16.13-38.99-23.93c-27.96-7.8-55.38-21.24-55.38-57.27C199.75,20.97,230.4,0,262.93,0
			c30.92,0,55.12,14.79,68.83,42.48l-36.29,21.24c-6.45-13.44-15.33-21.78-32.53-21.78c-13.44,0-20.16,6.72-20.16,14.25
			c0,8.6,4.57,14.52,33.87,23.39c28.5,8.6,60.5,18.55,60.5,58.34c0,36.3-29.04,57.81-69.9,57.81
			C227.71,195.73,202.44,176.91,191.96,149.22z"/>
		<path class="st0" d="M403,3.76v188.2h-43.02V3.76H403z"/>
	</g>
</g>
</svg>
